<?xml version="1.0" encoding="UTF-8" standalone="no"?>
<!DOCTYPE svg PUBLIC "-//W3C//DTD SVG 1.1//EN" "http://www.w3.org/Graphics/SVG/1.1/DTD/svg11.dtd">
<svg width="100%" height="100%" viewBox="0 0 200 200" version="1.1" xmlns="http://www.w3.org/2000/svg" xmlns:xlink="http://www.w3.org/1999/xlink" xml:space="preserve" xmlns:serif="http://www.serif.com/" style="fill-rule:evenodd;clip-rule:evenodd;stroke-linejoin:round;stroke-miterlimit:2;">
    <g transform="matrix(0.352113,0,0,0.352113,3.55271e-14,11.9512)">
        <path d="M123.121,33.664C188.241,82.553 258.281,181.681 284,234.873C309.719,181.681 379.759,82.553 444.879,33.664C491.866,-1.612 568,-28.906 568,57.946C568,75.292 558.055,203.659 552.222,224.501C531.947,296.954 458.067,315.434 392.347,304.249C507.222,323.8 536.444,388.56 473.333,453.32C353.473,576.312 301.061,422.461 287.631,383.039C285.169,375.812 284.017,372.431 284,375.306C283.983,372.431 282.831,375.812 280.369,383.039C266.939,422.461 214.527,576.312 94.667,453.32C31.556,388.56 60.778,323.8 175.653,304.249C109.933,315.434 36.054,296.954 15.778,224.501C9.945,203.659 0,75.292 0,57.946C0,-28.906 76.135,-1.612 123.121,33.664Z" style="fill-rule:nonzero;"/>
    </g>
</svg>
