<?xml version="1.0" encoding="UTF-8" standalone="no"?>
<!DOCTYPE svg PUBLIC "-//W3C//DTD SVG 1.1//EN" "http://www.w3.org/Graphics/SVG/1.1/DTD/svg11.dtd">
<svg width="100%" height="100%" viewBox="0 0 1440 500" version="1.1" xmlns="http://www.w3.org/2000/svg" xmlns:xlink="http://www.w3.org/1999/xlink" xml:space="preserve" xmlns:serif="http://www.serif.com/" style="fill-rule:evenodd;clip-rule:evenodd;stroke-linejoin:round;stroke-miterlimit:2;">
    <g transform="matrix(1.02938,1.02938,-1.02938,1.02938,203.434,-615.562)">
        <path d="M386.884,303.033L330.901,303.033L433.934,200L536.967,303.033L480.983,303.033L497.95,320L553.934,320L640,406.066L227.868,406.066L313.934,320L369.917,320L386.884,303.033ZM475.149,158.787L516.925,117.012C526.346,107.591 534.248,101.13 540.632,97.63C549.229,92.945 558.392,90.731 568.122,90.989C577.852,91.246 587.568,93.755 597.272,98.517C606.976,103.279 617.131,110.962 627.735,121.567C637.054,130.886 643.925,140.075 648.353,149.135C653.759,160.203 656.384,170.911 656.23,181.258C656.126,189.083 653.784,197.45 649.202,206.354C645.754,212.996 639.807,220.538 631.365,228.98L588.353,271.992L475.149,158.787ZM517.156,155.081L592.137,230.062L609.202,212.996C615.586,206.612 619.833,201.645 621.944,198.093C624.724,193.46 626.229,188.813 626.461,184.153C626.693,179.496 625.046,173.857 621.519,167.243C617.993,160.628 611.853,152.945 603.102,144.193C594.351,135.442 586.86,129.495 580.632,126.355C574.402,123.214 568.585,121.722 563.18,121.876C557.774,122.032 552.473,123.781 547.273,127.127C543.361,129.598 536.744,135.493 527.426,144.81L517.156,155.081ZM698.44,161.905L585.236,48.7L608.093,25.844L658.362,76.114L654.27,-20.334L685.003,-51.067L686.471,35.65L800.525,59.82L770.949,89.396L686.702,67.388L687.089,104.84L721.297,139.048L698.44,161.905ZM797.924,-163.987L911.128,-50.783L888.272,-27.926L838.002,-78.196L842.094,18.251L811.36,48.986L809.894,-37.732L695.839,-61.902L725.415,-91.478L809.662,-69.47L809.275,-106.922L775.067,-141.13L797.924,-163.987ZM931.287,-70.942L818.083,-184.146L840.322,-206.386L962.252,-177.119L886.654,-252.717L907.889,-273.953L1021.09,-160.748L998.159,-137.814L878.7,-166L952.523,-92.178L931.287,-70.942ZM717.534,326.771L709.144,318.381C710.094,323.412 709.768,328.45 708.168,333.498C706.567,338.546 703.92,342.918 700.227,346.611C696.463,350.375 692.259,352.925 687.616,354.262C682.972,355.598 678.487,355.439 674.161,353.787C669.834,352.133 665.032,348.668 659.756,343.392L624.298,307.933L639.125,293.106L664.874,318.855C672.755,326.735 677.854,331.29 680.175,332.522C682.498,333.753 684.898,334.166 687.378,333.762C689.858,333.358 692.207,332.047 694.423,329.831C696.955,327.298 698.53,324.334 699.146,320.94C699.761,317.545 699.409,314.451 698.089,311.653C696.77,308.857 692.101,303.448 684.08,295.428L660.442,271.789L675.269,256.962L731.306,312.999L717.534,326.771ZM797.631,246.673L782.805,261.5L754.206,232.901C748.155,226.85 743.926,223.254 741.515,222.11C739.106,220.967 736.696,220.616 734.287,221.055C731.877,221.494 729.669,222.718 727.664,224.723C725.097,227.29 723.496,230.298 722.863,233.745C722.23,237.193 722.696,240.455 724.262,243.534C725.826,246.611 729.74,251.281 736.002,257.542L761.382,282.922L746.555,297.75L690.518,241.713L704.29,227.941L712.521,236.172C711.079,224.951 714.068,215.629 721.491,208.206C724.762,204.935 728.342,202.534 732.229,201.004C736.116,199.475 739.669,198.929 742.888,199.369C746.106,199.808 749.149,200.917 752.016,202.692C754.883,204.469 758.48,207.522 762.806,211.848L797.631,246.673ZM749.035,168L735.315,154.281L750.142,139.453L763.862,153.173L749.035,168ZM812.669,231.635L756.633,175.598L771.46,160.771L827.497,216.808L812.669,231.635ZM858.1,186.204L779.48,152.751L795.046,137.185L834.197,155.231L846.808,161.721C845.19,158.484 844.1,156.374 843.537,155.39C842.447,153.313 841.391,151.202 840.372,149.057L822.431,109.8L837.68,94.551L871.45,172.854L858.1,186.204ZM917.408,91.226L934.663,78.932C938.181,86.249 939.307,93.372 938.04,100.302C936.773,107.231 933.063,113.775 926.907,119.931C917.163,129.675 906.768,133.702 895.722,132.013C886.929,130.607 878.644,126.016 870.87,118.242C861.583,108.955 856.737,99.255 856.332,89.142C855.928,79.029 859.437,70.26 866.859,62.838C875.196,54.501 884.528,50.676 894.852,51.362C905.176,52.047 915.913,58.177 927.066,69.751L889.918,106.898C894.421,111.19 899.038,113.414 903.768,113.573C908.5,113.731 912.572,112.103 915.984,108.691C918.305,106.37 919.625,103.784 919.942,100.936C920.258,98.086 919.413,94.85 917.408,91.226ZM903.267,75.396C898.87,71.21 894.5,69.056 890.155,68.933C885.811,68.81 882.126,70.261 879.101,73.286C875.865,76.522 874.37,80.375 874.616,84.841C874.863,89.309 877.026,93.548 881.106,97.558L903.267,75.396ZM977.086,67.218L962.259,82.045L906.222,26.009L919.994,12.237L927.962,20.204C926.554,14.084 926.194,9.484 926.88,6.406C927.566,3.328 929.104,0.593 931.496,-1.799C934.873,-5.176 939.06,-7.497 944.055,-8.764L952.392,8.754C948.276,9.634 945.146,11.146 943,13.292C940.924,15.368 939.738,17.698 939.438,20.283C939.139,22.869 940.071,26.07 942.235,29.886C944.398,33.704 950.247,40.378 959.779,49.911L977.086,67.218ZM983.734,28.594L996.346,11.446C999.863,13.697 1003.34,14.602 1006.77,14.163C1010.2,13.723 1013.65,11.762 1017.13,8.279C1020.97,4.445 1023.15,0.856 1023.68,-2.485C1024,-4.772 1023.33,-6.741 1021.67,-8.394C1020.55,-9.521 1019.26,-10.101 1017.82,-10.136C1016.38,-10.101 1014.08,-9.098 1010.91,-7.129C996.311,2.193 986.321,7.365 980.938,8.384C973.481,9.792 967.061,7.805 961.679,2.423C956.824,-2.432 954.662,-8.43 955.188,-15.571C955.716,-22.711 960.008,-30.31 968.063,-38.366C975.731,-46.034 982.68,-50.484 988.906,-51.715C995.132,-52.947 1001.39,-51.82 1007.69,-48.338L996.292,-31.77C993.515,-33.353 990.709,-33.888 987.876,-33.379C985.045,-32.869 982.082,-31.066 978.986,-27.97C975.081,-24.065 972.83,-20.725 972.232,-17.945C971.88,-16.046 972.32,-14.481 973.551,-13.249C974.606,-12.194 975.996,-11.789 977.719,-12.036C980.041,-12.387 986.047,-15.615 995.739,-21.718C1005.43,-27.821 1013.14,-31.137 1018.88,-31.664C1024.61,-32.121 1029.83,-29.994 1034.55,-25.28C1039.68,-20.143 1041.95,-13.583 1041.35,-5.598C1040.76,2.387 1036.25,10.584 1027.85,18.991C1020.21,26.624 1012.62,31.118 1005.08,32.472C997.533,33.826 990.418,32.533 983.734,28.594ZM1079.66,-71.028L1096.92,-83.321C1100.43,-76.004 1101.56,-68.881 1100.29,-61.951C1099.03,-55.022 1095.32,-48.478 1089.16,-42.323C1079.42,-32.578 1069.02,-28.551 1057.97,-30.24C1049.18,-31.646 1040.9,-36.237 1033.12,-44.011C1023.84,-53.298 1018.99,-62.998 1018.59,-73.112C1018.18,-83.224 1021.69,-91.993 1029.11,-99.416C1037.45,-107.752 1046.78,-111.577 1057.11,-110.891C1067.43,-110.206 1078.17,-104.076 1089.32,-92.502L1052.17,-55.356C1056.67,-51.064 1061.29,-48.839 1066.02,-48.681C1070.75,-48.523 1074.83,-50.15 1078.24,-53.562C1080.56,-55.883 1081.88,-58.469 1082.2,-61.318C1082.51,-64.168 1081.67,-67.404 1079.66,-71.028ZM1065.52,-86.857C1061.12,-91.043 1056.75,-93.197 1052.41,-93.32C1048.07,-93.444 1044.38,-91.993 1041.35,-88.967C1038.12,-85.731 1036.62,-81.879 1036.87,-77.412C1037.12,-72.944 1039.28,-68.705 1043.36,-64.695L1065.52,-86.857Z"/>
    </g>
</svg>
