<?xml version="1.0" encoding="UTF-8" standalone="no"?>
<!DOCTYPE svg PUBLIC "-//W3C//DTD SVG 1.1//EN" "http://www.w3.org/Graphics/SVG/1.1/DTD/svg11.dtd">
<svg width="100%" height="100%" viewBox="0 0 200 200" version="1.1" xmlns="http://www.w3.org/2000/svg" xmlns:xlink="http://www.w3.org/1999/xlink" xml:space="preserve" xmlns:serif="http://www.serif.com/" style="fill-rule:evenodd;clip-rule:evenodd;stroke-linejoin:round;stroke-miterlimit:2;">
    <g transform="matrix(1.47634,0,0,1.47634,-56.2489,-148.66)">
        <path d="M54.63,120.96C52.652,120.96 50.768,121.29 48.979,121.949C45.776,123.079 43.139,125.104 41.067,128.024C39.089,130.85 38.1,134.005 38.1,137.49L38.1,199.37C38.1,203.891 39.701,207.799 42.904,211.096C46.2,214.298 50.109,215.9 54.63,215.9C59.245,215.9 63.153,214.298 66.356,211.096C69.652,207.799 71.301,203.891 71.301,199.37L71.301,188.117C71.336,185.68 73.847,186.319 75.115,188.117C77.492,192.232 82.53,195.766 88.395,195.746C94.261,195.726 99.132,192.826 101.675,188.117C102.638,186.981 105.353,185.046 105.631,188.117L105.631,199.37C105.631,203.891 107.232,207.799 110.434,211.096C113.731,214.298 117.64,215.9 122.16,215.9C126.776,215.9 130.684,214.298 133.886,211.096C137.183,207.799 138.831,203.891 138.831,199.37L138.831,137.49C138.831,134.005 137.796,130.85 135.724,128.024C133.746,125.104 131.155,123.079 127.953,121.949C126.069,121.29 124.185,120.96 122.302,120.96C117.216,120.96 112.93,122.938 109.446,126.894L92.671,146.526C92.294,146.809 91.046,148.969 88.395,148.969C85.744,148.969 84.638,146.809 84.261,146.526L67.345,126.894C63.954,122.938 59.716,120.96 54.63,120.96L54.63,120.96ZM159.16,120.96C155.204,120.96 151.814,122.373 148.988,125.199C146.257,127.93 144.891,131.274 144.891,135.23C144.891,139.185 146.257,142.576 148.988,145.402C151.814,148.133 155.204,149.499 159.16,149.499C163.116,149.499 166.506,148.133 169.332,145.402C172.158,142.576 173.57,139.185 173.57,135.23C173.57,131.274 172.158,127.93 169.332,125.199C166.506,122.373 163.116,120.96 159.16,120.96ZM159.301,152.324C155.345,152.324 151.955,153.737 149.129,156.562C146.303,159.388 144.891,162.779 144.891,166.734L144.891,201.63C144.891,205.586 146.303,208.977 149.129,211.802C151.955,214.534 155.345,215.9 159.301,215.9C163.257,215.9 166.601,214.534 169.332,211.802C172.158,208.977 173.571,205.586 173.571,201.63L173.571,166.734C173.571,162.779 172.158,159.388 169.332,156.562C166.601,153.737 163.257,152.324 159.301,152.324Z" style="fill-rule:nonzero;"/>
    </g>
</svg>
